<?xml version="1.0" encoding="UTF-8" standalone="no"?>
<!-- Created with Inkscape (http://www.inkscape.org/) -->

<svg
   width="60.959999mm"
   height="128.5mm"
   viewBox="0 0 60.959999 128.5"
   version="1.1"
   id="svg1"
   xml:space="preserve"
   inkscape:version="1.4 (e7c3feb1, 2024-10-09)"
   sodipodi:docname="plank.svg"
   xmlns:inkscape="http://www.inkscape.org/namespaces/inkscape"
   xmlns:sodipodi="http://sodipodi.sourceforge.net/DTD/sodipodi-0.dtd"
   xmlns:xlink="http://www.w3.org/1999/xlink"
   xmlns="http://www.w3.org/2000/svg"
   xmlns:svg="http://www.w3.org/2000/svg"><sodipodi:namedview
     id="namedview1"
     pagecolor="#ffffff"
     bordercolor="#000000"
     borderopacity="0.25"
     inkscape:showpageshadow="2"
     inkscape:pageopacity="0.0"
     inkscape:pagecheckerboard="0"
     inkscape:deskcolor="#d1d1d1"
     inkscape:document-units="mm"
     inkscape:zoom="1.0154442"
     inkscape:cx="98.971465"
     inkscape:cy="239.79653"
     inkscape:window-width="1360"
     inkscape:window-height="730"
     inkscape:window-x="1920"
     inkscape:window-y="86"
     inkscape:window-maximized="0"
     inkscape:current-layer="layer1" /><defs
     id="defs1"><pattern
       inkscape:collect="always"
       xlink:href="#Checkerboard"
       preserveAspectRatio="xMidYMid"
       id="pattern8"
       patternTransform="matrix(10,0,0,10,19.937498,-12.767401)" /><pattern
       inkscape:collect="always"
       style="fill:#000000"
       patternUnits="userSpaceOnUse"
       width="2"
       height="2"
       patternTransform="translate(0,0) scale(10,10)"
       id="Checkerboard"
       inkscape:stockid="Checkerboard"
       preserveAspectRatio="xMidYMid"
       inkscape:isstock="true"
       inkscape:label="Checkerboard">
      <rect
   style="stroke:none"
   x="0"
   y="0"
   width="1"
   height="1"
   id="rect209" />
      <rect
   style="stroke:none"
   x="1"
   y="1"
   width="1"
   height="1"
   id="rect211" />
    </pattern><clipPath
       clipPathUnits="userSpaceOnUse"
       id="clipPath36"><rect
         style="fill:none;stroke:#000000;stroke-linecap:butt;stroke-linejoin:bevel;paint-order:stroke markers fill;stop-color:#000000"
         id="rect36"
         width="45.034248"
         height="38.955639"
         x="262.48285"
         y="121.00073" /></clipPath><clipPath
       clipPathUnits="userSpaceOnUse"
       id="clipPath5"><rect
         style="fill:#000000;stroke:#000000;stroke-width:0;stroke-linejoin:bevel;paint-order:stroke markers fill;stop-color:#000000"
         id="rect5-4"
         width="20"
         height="200"
         x="530"
         y="595" /></clipPath><clipPath
       clipPathUnits="userSpaceOnUse"
       id="clipPath22"><path
         id="path22"
         style="stroke-width:0.0999999;stroke-linecap:square;paint-order:markers fill stroke;stop-color:#000000"
         d="m 1691.1994,-792.32001 h 1634.8919 v 92.82806 H 1691.1994 Z" /></clipPath><clipPath
       clipPathUnits="userSpaceOnUse"
       id="clipPath54"><path
         id="path54"
         style="stroke-width:0.0999999;stroke-linecap:square;paint-order:markers fill stroke;stop-color:#000000"
         d="m 1691.1994,-792.32001 h 1634.8919 v 92.82806 H 1691.1994 Z" /></clipPath><clipPath
       clipPathUnits="userSpaceOnUse"
       id="clipPath51"><path
         id="path51"
         style="stroke-width:0.0999999;stroke-linecap:square;paint-order:markers fill stroke;stop-color:#000000"
         d="m 1806.4991,-753.5228 h 1637.2646 v 66.90533 H 1806.4991 Z" /></clipPath><clipPath
       clipPathUnits="userSpaceOnUse"
       id="clipPath15"><rect
         style="fill:none;stroke:#000000;stroke-linecap:butt;stroke-linejoin:bevel;paint-order:stroke markers fill;stop-color:#000000"
         id="rect15-7"
         width="45.034248"
         height="38.955639"
         x="262.48285"
         y="121.00073" /></clipPath></defs><g
     inkscape:label="plate"
     inkscape:groupmode="layer"
     id="layer1"><rect
       style="display:inline;fill:#daa5ad;fill-opacity:1;stroke-width:0.534023;stroke-opacity:0.544828"
       id="rect2"
       width="60.689999"
       height="128.5"
       x="0.13500023"
       y="6.6613381e-15" /><rect
       style="fill:url(#pattern8);fill-opacity:1;stroke-width:0.499999;stroke-opacity:0.544828"
       id="rect3"
       width="60.689999"
       height="128.5"
       x="0.13500023"
       y="-7.1054274e-15" /><rect
       style="opacity:1;fill:#ffffff;fill-opacity:1;stroke:none;stroke-width:0.5;stroke-dasharray:none;stroke-opacity:0.737052"
       id="rect1"
       width="48.07317"
       height="17.978584"
       x="6.4434147"
       y="103.442"
       ry="5.4715228" /><path
       style="font-style:italic;font-weight:900;font-size:6.75739px;font-family:'Montserrat Alternates';-inkscape-font-specification:'Montserrat Alternates, Heavy Italic';fill:#ffffff;stroke-width:1.06416;stroke-opacity:0.737052;fill-opacity:1"
       d="M 6.859539,6.35239 H 7.656911 L 7.4339171,7.4673593 H 6.6838468 L 6.2040721,9.8459606 H 4.676902 L 5.3931853,6.2645439 Q 5.5283331,5.5752901 6.0081078,5.1698467 6.4878825,4.7644033 7.2717398,4.7644033 q 0.5743781,0 0.9392772,0.1824496 L 7.6298814,6.0077631 Q 7.4677041,5.919917 7.2852545,5.919917 q -0.1824495,0 -0.277053,0.1013609 -0.094603,0.094603 -0.1486625,0.3243547 z M 9.8327899,6.0820944 q 0.5338341,0 0.9527921,0.1892069 0.425715,0.1892069 0.668981,0.5608634 0.243267,0.3716564 0.243267,0.8987328 0,0.081089 -0.01351,0.2567809 l -2.6151102,0.486532 q 0.074331,0.1621774 0.243266,0.2365087 0.1689348,0.074331 0.4459878,0.074331 0.4392304,0 0.7838574,-0.2567808 L 11.17751,9.454032 q -0.675739,0.4595025 -1.6082584,0.4595025 -0.6081651,0 -1.074425,-0.2094791 Q 8.0353241,9.4945763 7.7785433,9.1094051 7.5285199,8.7242339 7.5285199,8.2039148 q 0,-0.6081651 0.2838103,-1.0879398 Q 8.102898,6.629443 8.623217,6.3591474 9.1502935,6.0820944 9.8327899,6.0820944 Z m -0.081089,1.040638 q -0.2838104,0 -0.4527452,0.1689348 Q 9.1300213,7.4538445 9.05569,7.7308975 L 10.285535,7.5011463 Q 10.251748,7.3186967 10.103085,7.2240933 9.9611803,7.1227324 9.7517012,7.1227324 Z m 5.1558898,-1.040638 q 0.601408,0 0.95955,0.3243547 0.364899,0.3243547 0.364899,0.9325198 0,0.2297513 -0.0473,0.4662599 l -0.405443,2.0407318 h -1.527171 l 0.371657,-1.8582822 q 0.02703,-0.1621774 0.02703,-0.2229939 0,-0.398686 -0.385171,-0.398686 -0.540591,0 -0.682496,0.7027685 l -0.358142,1.7771936 h -1.52717 l 0.736555,-3.6962923 h 1.439325 l -0.07433,0.3716564 q 0.236509,-0.2229938 0.520319,-0.3311121 0.290568,-0.1081182 0.587893,-0.1081182 z m 2.270481,0.067574 h 1.520413 l -0.736556,3.6962923 h -1.520412 z m 0.925763,-0.2973252 q -0.391929,0 -0.628438,-0.2027217 -0.236508,-0.2094791 -0.236508,-0.520319 0,-0.3581417 0.270295,-0.5946503 0.270296,-0.2365087 0.702769,-0.2365087 0.391929,0 0.628437,0.1959643 0.236509,0.1892069 0.236509,0.5000469 0,0.3851712 -0.270296,0.6216799 -0.263538,0.2365086 -0.702768,0.2365086 z M 25.050431,8.34582 q -0.01351,0.094603 -0.01351,0.1283904 0,0.2838104 0.297325,0.2838104 0.15542,0 0.263538,-0.054059 l -0.162177,1.1149694 q -0.33787,0.094603 -0.675739,0.094603 -0.459503,0 -0.750071,-0.1689347 -0.290567,-0.1756922 -0.398686,-0.5000469 -0.479774,0.6689816 -1.223087,0.6689816 -0.378414,0 -0.729798,-0.2027217 -0.351385,-0.2027217 -0.574378,-0.5878929 -0.216237,-0.3919286 -0.216237,-0.9190051 0,-0.5946503 0.263538,-1.0811824 0.270296,-0.486532 0.723041,-0.763585 0.452745,-0.277053 0.979822,-0.277053 0.777099,0 1.081182,0.4932894 l 0.31084,-1.7434066 h 1.52717 z m -2.088033,0.3648991 q 0.297325,0 0.479775,-0.2297513 0.189207,-0.2297512 0.189207,-0.6149225 0,-0.2635382 -0.148663,-0.4189581 -0.141905,-0.1621774 -0.398686,-0.1621774 -0.297325,0 -0.486532,0.2297513 -0.18245,0.2297512 -0.18245,0.6149225 0,0.2635382 0.141906,0.4257155 0.148662,0.15542 0.405443,0.15542 z m 5.277516,-2.6286247 q 0.533834,0 0.952792,0.1892069 0.425715,0.1892069 0.668982,0.5608634 0.243266,0.3716564 0.243266,0.8987328 0,0.081089 -0.01351,0.2567809 l -2.61511,0.486532 q 0.07433,0.1621774 0.243266,0.2365087 0.168935,0.074331 0.445988,0.074331 0.43923,0 0.783857,-0.2567808 l 0.635195,0.9257624 q -0.675739,0.4595025 -1.608259,0.4595025 -0.608165,0 -1.074425,-0.2094791 -0.459503,-0.2094791 -0.716284,-0.5946503 -0.250023,-0.3851712 -0.250023,-0.9054903 0,-0.6081651 0.28381,-1.0879398 0.290568,-0.486532 0.810887,-0.7568276 0.527077,-0.277053 1.209573,-0.277053 z m -0.08109,1.040638 q -0.28381,0 -0.452745,0.1689348 -0.168935,0.1621773 -0.243266,0.4392303 L 28.692659,7.5011463 Q 28.658872,7.3186967 28.51021,7.2240933 28.368304,7.1227324 28.158825,7.1227324 Z m 3.486814,2.7908021 q -0.479774,0 -0.925762,-0.094603 -0.445988,-0.094603 -0.696011,-0.2432661 l 0.527076,-1.040638 q 0.263538,0.1621773 0.608165,0.2500234 0.351385,0.087846 0.675739,0.087846 0.452746,0 0.452746,-0.1756922 0,-0.074331 -0.121634,-0.1081182 Q 32.051083,8.5485417 31.794302,8.5147548 31.395616,8.4539383 31.118563,8.3728496 30.84151,8.2850035 30.632031,8.0755244 30.422552,7.859288 30.422552,7.4808741 q 0,-0.6824964 0.581135,-1.0406381 0.581136,-0.3581416 1.500141,-0.3581416 0.405443,0 0.7771,0.074331 0.378414,0.067574 0.668981,0.2027217 l -0.527076,1.040638 q -0.479775,-0.277053 -1.101455,-0.277053 -0.243266,0 -0.358141,0.054059 -0.108118,0.054059 -0.108118,0.1283904 0,0.074331 0.114875,0.1148756 0.114876,0.033787 0.391929,0.081089 0.391928,0.060816 0.662224,0.1486626 0.277053,0.081089 0.479775,0.2973251 0.209479,0.2094791 0.209479,0.5811356 0,0.4459877 -0.277053,0.763585 -0.270296,0.31084 -0.743313,0.4662599 -0.46626,0.15542 -1.047396,0.15542 z M 34.65944,6.1496683 h 1.520413 l -0.736555,3.6962923 h -1.520413 z m 0.925763,-0.2973252 q -0.391929,0 -0.628438,-0.2027217 -0.236508,-0.2094791 -0.236508,-0.520319 0,-0.3581417 0.270295,-0.5946503 0.270296,-0.2365087 0.702769,-0.2365087 0.391929,0 0.628437,0.1959643 0.236509,0.1892069 0.236509,0.5000469 0,0.3851712 -0.270296,0.6216799 -0.263538,0.2365086 -0.702768,0.2365086 z m 5.405917,0.2973252 -0.587893,2.9529794 q -0.216236,1.1014543 -0.858188,1.6082593 -0.635195,0.513561 -1.669075,0.513561 -1.135242,0 -1.831253,-0.459502 L 36.69342,9.7243276 q 0.222994,0.1689347 0.547349,0.2635382 0.331112,0.1013612 0.662224,0.1013612 0.425716,0 0.635195,-0.1756925 0.216236,-0.1756921 0.28381,-0.5270764 l 0.02027,-0.094603 q -0.378413,0.3513843 -0.932519,0.3513843 -0.418959,0 -0.783858,-0.1892069 Q 36.760994,9.2580677 36.538,8.8931686 36.315007,8.5282696 36.315007,8.0484949 q 0,-0.5405912 0.263538,-0.986579 0.263538,-0.4527451 0.716283,-0.7162833 0.459503,-0.2635382 1.006851,-0.2635382 0.871704,0 1.128484,0.6284372 l 0.108119,-0.5608633 z m -3.135429,1.8244953 q 0,0.2094791 0.141906,0.3446269 0.148662,0.1283904 0.398686,0.1283904 0.297325,0 0.473017,-0.1892069 0.182449,-0.189207 0.182449,-0.5000469 0,-0.2094791 -0.141905,-0.3378695 -0.141905,-0.1351478 -0.391928,-0.1351478 -0.297325,0 -0.479775,0.1892069 -0.18245,0.1892069 -0.18245,0.5000469 z m 6.27762,-1.8920692 q 0.601407,0 0.959549,0.3243547 0.364899,0.3243547 0.364899,0.9325198 0,0.2297513 -0.0473,0.4662599 l -0.405443,2.0407318 h -1.52717 L 43.8495,7.9876784 q 0.02703,-0.1621774 0.02703,-0.2229939 0,-0.398686 -0.385171,-0.398686 -0.540592,0 -0.682497,0.7027685 L 42.450721,9.8459606 H 40.92355 l 0.736556,-3.6962923 h 1.439324 l -0.07433,0.3716564 q 0.236508,-0.2229938 0.520319,-0.3311121 0.290568,-0.1081182 0.587893,-0.1081182 z m 5.737016,3.8314401 q -0.601408,0 -1.06091,-0.2094791 -0.452745,-0.2162365 -0.702769,-0.6014077 -0.250023,-0.3851712 -0.250023,-0.8987329 0,-0.6014077 0.297325,-1.0811824 0.297325,-0.486532 0.831159,-0.763585 0.533834,-0.277053 1.202815,-0.277053 0.655467,0 1.141999,0.2905677 0.49329,0.2905678 0.689254,0.7906147 l -1.297419,0.5946503 q -0.175692,-0.4730173 -0.608165,-0.4730173 -0.31084,0 -0.513562,0.2297513 -0.195964,0.2297512 -0.195964,0.5946503 0,0.2702956 0.148663,0.4392303 0.15542,0.1621774 0.432473,0.1621774 0.229751,0 0.391928,-0.1081182 0.168935,-0.1148757 0.297325,-0.3648991 l 1.11497,0.6487094 q -0.277053,0.4932895 -0.7771,0.7635851 -0.49329,0.2635382 -1.141999,0.2635382 z m 4.1085,0 q -0.608165,0 -1.06091,-0.2094791 -0.452746,-0.2162365 -0.702769,-0.6014077 -0.243266,-0.3851712 -0.243266,-0.8987329 0,-0.6014077 0.297325,-1.0811824 0.297325,-0.486532 0.817644,-0.763585 0.527077,-0.277053 1.189301,-0.277053 0.608165,0 1.06091,0.2162365 0.452745,0.209479 0.696011,0.5946503 0.250024,0.3851712 0.250024,0.8987329 0,0.6014077 -0.297325,1.0879397 -0.297326,0.4797747 -0.824402,0.7568277 -0.520319,0.277053 -1.182543,0.277053 z m 0.08785,-1.2028154 q 0.297325,0 0.479775,-0.2297513 0.189206,-0.2297512 0.189206,-0.6149225 0,-0.2635382 -0.148662,-0.4189581 -0.141905,-0.1621774 -0.398686,-0.1621774 -0.297325,0 -0.486532,0.2297513 -0.18245,0.2297512 -0.18245,0.6149225 0,0.2635382 0.141905,0.4257155 0.148663,0.15542 0.405444,0.15542 z"
       id="text3"
       aria-label="feni design co" /></g><g
     inkscape:groupmode="layer"
     id="layer2"
     inkscape:label="components"
     style="display:none"><circle
       style="fill:#ff0000;fill-opacity:1;stroke:none;stroke-width:0.499999;stroke-dasharray:none;stroke-opacity:0.544828"
       id="path3"
       cx="30.48"
       cy="34.674431"
       r="5.1588087" /><circle
       style="fill:#ff00ff;fill-opacity:1;stroke:none;stroke-width:0.499999;stroke-dasharray:none;stroke-opacity:0.544828"
       id="path3-8"
       cx="30.48"
       cy="60.805153"
       r="5.1588087" /><circle
       style="fill:#00ff00;fill-opacity:1;stroke:none;stroke-width:0.499999;stroke-dasharray:none;stroke-opacity:0.544828"
       id="path3-8-5"
       cx="30.48"
       cy="91.374741"
       r="5.1588087" /><circle
       style="fill:#0000ff;fill-opacity:1;stroke:none;stroke-width:0.499999;stroke-dasharray:none;stroke-opacity:0.544828"
       id="path3-8-5-2"
       cx="30.48"
       cy="112.43129"
       r="5.1588087" /></g></svg>
