<?xml version="1.0" encoding="UTF-8" standalone="no"?>
<!-- Created with Inkscape (http://www.inkscape.org/) -->

<svg
   width="60.959999mm"
   height="128.5mm"
   viewBox="0 0 60.959999 128.5"
   version="1.1"
   id="svg1"
   xml:space="preserve"
   inkscape:version="1.4 (e7c3feb1, 2024-10-09)"
   sodipodi:docname="planky.svg"
   xmlns:inkscape="http://www.inkscape.org/namespaces/inkscape"
   xmlns:sodipodi="http://sodipodi.sourceforge.net/DTD/sodipodi-0.dtd"
   xmlns:xlink="http://www.w3.org/1999/xlink"
   xmlns="http://www.w3.org/2000/svg"
   xmlns:svg="http://www.w3.org/2000/svg"><sodipodi:namedview
     id="namedview1"
     pagecolor="#ffffff"
     bordercolor="#000000"
     borderopacity="0.25"
     inkscape:showpageshadow="2"
     inkscape:pageopacity="0.0"
     inkscape:pagecheckerboard="0"
     inkscape:deskcolor="#d1d1d1"
     inkscape:document-units="mm"
     inkscape:zoom="2.0308884"
     inkscape:cx="95.032302"
     inkscape:cy="61.549418"
     inkscape:window-width="1632"
     inkscape:window-height="815"
     inkscape:window-x="73"
     inkscape:window-y="25"
     inkscape:window-maximized="0"
     inkscape:current-layer="layer4" /><defs
     id="defs1"><linearGradient
       id="linearGradient14"
       inkscape:collect="always"><stop
         style="stop-color:#bdbdbd;stop-opacity:1;"
         offset="0"
         id="stop14" /><stop
         style="stop-color:#949494;stop-opacity:1;"
         offset="0.57125318"
         id="stop16" /><stop
         style="stop-color:#f7f7f7;stop-opacity:1;"
         offset="1"
         id="stop15" /></linearGradient><clipPath
       clipPathUnits="userSpaceOnUse"
       id="clipPath36"><rect
         style="fill:none;stroke:#000000;stroke-linecap:butt;stroke-linejoin:bevel;paint-order:stroke markers fill;stop-color:#000000"
         id="rect36"
         width="45.034248"
         height="38.955639"
         x="262.48285"
         y="121.00073" /></clipPath><clipPath
       clipPathUnits="userSpaceOnUse"
       id="clipPath5"><rect
         style="fill:#000000;stroke:#000000;stroke-width:0;stroke-linejoin:bevel;paint-order:stroke markers fill;stop-color:#000000"
         id="rect5-4"
         width="20"
         height="200"
         x="530"
         y="595" /></clipPath><clipPath
       clipPathUnits="userSpaceOnUse"
       id="clipPath22"><path
         id="path22"
         style="stroke-width:0.0999999;stroke-linecap:square;paint-order:markers fill stroke;stop-color:#000000"
         d="m 1691.1994,-792.32001 h 1634.8919 v 92.82806 H 1691.1994 Z" /></clipPath><clipPath
       clipPathUnits="userSpaceOnUse"
       id="clipPath54"><path
         id="path54"
         style="stroke-width:0.0999999;stroke-linecap:square;paint-order:markers fill stroke;stop-color:#000000"
         d="m 1691.1994,-792.32001 h 1634.8919 v 92.82806 H 1691.1994 Z" /></clipPath><clipPath
       clipPathUnits="userSpaceOnUse"
       id="clipPath51"><path
         id="path51"
         style="stroke-width:0.0999999;stroke-linecap:square;paint-order:markers fill stroke;stop-color:#000000"
         d="m 1806.4991,-753.5228 h 1637.2646 v 66.90533 H 1806.4991 Z" /></clipPath><clipPath
       clipPathUnits="userSpaceOnUse"
       id="clipPath15"><rect
         style="fill:none;stroke:#000000;stroke-linecap:butt;stroke-linejoin:bevel;paint-order:stroke markers fill;stop-color:#000000"
         id="rect15-7"
         width="45.034248"
         height="38.955639"
         x="262.48285"
         y="121.00073" /></clipPath><linearGradient
       inkscape:collect="always"
       xlink:href="#linearGradient14"
       id="linearGradient15"
       x1="41.016827"
       y1="134.03519"
       x2="19.942989"
       y2="90.827415"
       gradientUnits="userSpaceOnUse" /><linearGradient
       inkscape:collect="always"
       xlink:href="#linearGradient14"
       id="linearGradient16"
       gradientUnits="userSpaceOnUse"
       x1="41.016827"
       y1="134.03519"
       x2="19.942989"
       y2="90.827415"
       gradientTransform="matrix(1.1680223,0,0,0.63768114,-5.1212209,-58.66091)" /></defs><g
     inkscape:label="plate"
     inkscape:groupmode="layer"
     id="layer1"
     style="display:inline"><rect
       style="display:inline;fill:#daa5ad;fill-opacity:1;stroke-width:0.534023;stroke-opacity:0.544828"
       id="rect2"
       width="60.959999"
       height="128.5"
       x="-1.5265567e-15"
       y="6.6613381e-15" /></g><g
     inkscape:groupmode="layer"
     id="layer3"
     inkscape:label="checkers"
     style="display:inline"><rect
       style="fill:#ffffff;stroke-width:0.499999;stroke-opacity:0.544828"
       id="rect3"
       width="12.2"
       height="12.2"
       x="0"
       y="0.1302796" /><rect
       style="fill:#ffffff;stroke-width:0.499999;stroke-opacity:0.544828"
       id="rect3-0"
       width="12.2"
       height="12.2"
       x="24.4"
       y="0.1302796" /><rect
       style="fill:#ffffff;stroke-width:0.499999;stroke-opacity:0.544828"
       id="rect3-0-3"
       width="12.2"
       height="12.2"
       x="48.799999"
       y="0.1302796" /><rect
       style="fill:#ffffff;stroke-width:0.499999;stroke-opacity:0.544828"
       id="rect3-3"
       width="12.2"
       height="12.2"
       x="12.2"
       y="12.330279" /><rect
       style="fill:#ffffff;stroke-width:0.499999;stroke-opacity:0.544828"
       id="rect3-3-9"
       width="12.2"
       height="12.2"
       x="36.599998"
       y="12.330279" /><rect
       style="fill:#ffffff;stroke-width:0.499999;stroke-opacity:0.544828"
       id="rect3-3-1"
       width="12.2"
       height="12.2"
       x="24.4"
       y="24.530279" /><rect
       style="fill:#ffffff;stroke-width:0.499999;stroke-opacity:0.544828"
       id="rect3-3-1-3"
       width="12.2"
       height="12.2"
       x="-3.8146973e-07"
       y="24.530279" /><rect
       style="fill:#ffffff;stroke-width:0.499999;stroke-opacity:0.544828"
       id="rect3-3-1-8"
       width="12.2"
       height="12.2"
       x="48.799999"
       y="24.530279" /><rect
       style="fill:#ffffff;stroke-width:0.499999;stroke-opacity:0.544828"
       id="rect3-3-1-5"
       width="12.2"
       height="12.2"
       x="36.599998"
       y="36.730278" /><rect
       style="fill:#ffffff;stroke-width:0.499999;stroke-opacity:0.544828"
       id="rect3-3-1-5-9"
       width="12.2"
       height="12.2"
       x="12.199999"
       y="36.730278" /><rect
       style="fill:#ffffff;stroke-width:0.499999;stroke-opacity:0.544828"
       id="rect3-3-1-5-4"
       width="12.2"
       height="12.2"
       x="48.799999"
       y="48.930279" /><rect
       style="fill:#ffffff;stroke-width:0.499999;stroke-opacity:0.544828"
       id="rect3-3-1-5-4-7"
       width="12.2"
       height="12.2"
       x="24.412548"
       y="48.8438" /><rect
       style="fill:#ffffff;stroke-width:0.499999;stroke-opacity:0.544828"
       id="rect3-3-1-5-4-7-8"
       width="12.2"
       height="12.2"
       x="-3.8146973e-07"
       y="48.930279" /><rect
       style="fill:#ffffff;stroke-width:0.499999;stroke-opacity:0.544828"
       id="rect3-3-1-5-4-7-8-6"
       width="12.2"
       height="12.2"
       x="12.2"
       y="61.13028" /><rect
       style="fill:#ffffff;stroke-width:0.499999;stroke-opacity:0.544828"
       id="rect3-3-1-5-4-7-8-6-3"
       width="12.2"
       height="12.2"
       x="36.599998"
       y="61.13028" /><rect
       style="fill:#ffffff;stroke-width:0.499999;stroke-opacity:0.544828"
       id="rect3-3-1-5-4-7-8-6-5"
       width="12.2"
       height="12.2"
       x="24.4"
       y="73.330276" /><rect
       style="fill:#ffffff;stroke-width:0.499999;stroke-opacity:0.544828"
       id="rect3-3-1-5-4-7-8-6-5-5"
       width="12.2"
       height="12.2"
       x="-3.8146973e-07"
       y="73.330276" /><rect
       style="fill:#ffffff;stroke-width:0.499999;stroke-opacity:0.544828"
       id="rect3-3-1-5-4-7-8-6-5-8"
       width="12.2"
       height="12.2"
       x="48.799999"
       y="73.330276" /><rect
       style="fill:#ffffff;stroke-width:0.499999;stroke-opacity:0.544828"
       id="rect3-3-1-5-4-7-8-6-5-0"
       width="12.2"
       height="12.2"
       x="36.599998"
       y="85.530273" /><rect
       style="fill:#ffffff;stroke-width:0.499999;stroke-opacity:0.544828"
       id="rect3-3-1-5-4-7-8-6-5-0-7"
       width="12.2"
       height="12.2"
       x="12.199999"
       y="85.530273" /><rect
       style="fill:#ffffff;stroke-width:0.499999;stroke-opacity:0.544828"
       id="rect3-3-1-5-4-7-8-6-5-0-0"
       width="12.2"
       height="12.2"
       x="48.799999"
       y="97.73027" /><rect
       style="fill:#ffffff;stroke-width:0.499999;stroke-opacity:0.544828"
       id="rect3-3-1-5-4-7-8-6-5-0-0-3"
       width="12.2"
       height="12.2"
       x="24.4"
       y="97.73027" /><rect
       style="fill:#ffffff;stroke-width:0.499999;stroke-opacity:0.544828"
       id="rect3-3-1-5-4-7-8-6-5-0-0-3-5"
       width="12.2"
       height="12.2"
       x="-3.8146973e-07"
       y="97.73027" /><rect
       style="fill:#ffffff;stroke-width:0.499999;stroke-opacity:0.544828"
       id="rect3-3-1-5-4-7-8-6-5-0-0-5"
       width="12.2"
       height="12.2"
       x="36.599998"
       y="109.93027" /><rect
       style="fill:#ffffff;stroke-width:0.499999;stroke-opacity:0.544828"
       id="rect3-3-1-5-4-7-8-6-5-0-0-5-0"
       width="12.2"
       height="12.2"
       x="12.199999"
       y="109.93027" /><rect
       style="fill:#ffffff;stroke-width:0.361305;stroke-opacity:0.544828"
       id="rect3-3-1-5-4-7-8-6-5-0-0-5-7"
       width="12.2"
       height="6.3704305"
       x="24.399998"
       y="122.13026" /><rect
       style="fill:#ffffff;stroke-width:0.361305;stroke-opacity:0.544828"
       id="rect3-3-1-5-4-7-8-6-5-0-0-5-7-1"
       width="12.2"
       height="6.3704305"
       x="48.799999"
       y="122.13026" /><rect
       style="fill:#ffffff;stroke-width:0.361305;stroke-opacity:0.544828"
       id="rect3-3-1-5-4-7-8-6-5-0-0-5-7-3"
       width="12.2"
       height="6.3704305"
       x="-2.2888185e-06"
       y="122.13026" /></g><g
     inkscape:groupmode="layer"
     id="layer4"
     inkscape:label="decals"
     style="display:inline"><rect
       style="display:inline;opacity:1;mix-blend-mode:normal;fill:url(#linearGradient15);fill-opacity:1;stroke:none;stroke-width:0.5;stroke-dasharray:none;stroke-opacity:0.737052"
       id="rect1"
       width="48.073002"
       height="17.978584"
       x="6.4434147"
       y="103.442"
       ry="5.4715228" /><rect
       style="display:inline;mix-blend-mode:normal;fill:url(#linearGradient16);fill-opacity:1;stroke:none;stroke-width:0.431516;stroke-dasharray:none;stroke-opacity:0.737052"
       id="rect1-1"
       width="56.150337"
       height="11.464604"
       x="2.4048309"
       y="7.3021045"
       ry="3.4890869" /><path
       style="font-style:italic;font-weight:900;font-size:6.75739px;font-family:'Montserrat Alternates';-inkscape-font-specification:'Montserrat Alternates, Heavy Italic';display:inline;fill:#000000;fill-opacity:1;stroke-width:1.06416;stroke-opacity:0.737052"
       d="m 6.8595392,11.625491 h 0.797372 L 7.4339173,12.74046 H 6.683847 L 6.2040723,15.119061 H 4.6769022 l 0.7162833,-3.581416 q 0.1351478,-0.689254 0.6149225,-1.094697 0.4797747,-0.405444 1.263632,-0.405444 0.5743781,0 0.9392772,0.18245 l -0.5811356,1.06091 q -0.1621773,-0.08785 -0.3446269,-0.08785 -0.1824495,0 -0.277053,0.101361 -0.094603,0.0946 -0.1486625,0.324355 z m 2.9732516,-0.270296 q 0.5338342,0 0.9527922,0.189207 0.425715,0.189207 0.668981,0.560864 0.243267,0.371656 0.243267,0.898732 0,0.08109 -0.01351,0.256781 L 9.06921,13.747311 q 0.074331,0.162178 0.2432656,0.236509 0.1689352,0.07433 0.4459882,0.07433 0.4392312,0 0.7838582,-0.256781 l 0.635189,0.925763 q -0.675739,0.459502 -1.6082592,0.459502 -0.6081651,0 -1.074425,-0.209479 -0.4595025,-0.209479 -0.7162833,-0.59465 -0.2500234,-0.385171 -0.2500234,-0.90549 0,-0.608165 0.2838103,-1.08794 0.2905678,-0.486532 0.8108868,-0.756828 0.5270765,-0.277053 1.2095736,-0.277052 z m -0.08109,1.040638 q -0.2838112,0 -0.4527462,0.168935 -0.1689341,0.162177 -0.2432654,0.43923 l 1.2298468,-0.229751 q -0.03379,-0.182449 -0.18245,-0.277053 -0.1419052,-0.101361 -0.3513842,-0.101361 z m 5.1558902,-1.040638 q 0.601408,0 0.95955,0.324355 0.364899,0.324355 0.364899,0.93252 0,0.229751 -0.0473,0.46626 l -0.405443,2.040731 h -1.527171 l 0.371657,-1.858282 q 0.02703,-0.162177 0.02703,-0.222994 0,-0.398686 -0.385171,-0.398686 -0.540591,0 -0.682496,0.702769 l -0.358142,1.777193 h -1.52717 l 0.736555,-3.696292 h 1.439325 l -0.07433,0.371657 q 0.236509,-0.222994 0.520319,-0.331112 0.290568,-0.108119 0.587893,-0.108119 z m 2.270481,0.06757 h 1.520413 l -0.736556,3.696292 h -1.520412 z m 0.925763,-0.297325 q -0.391929,0 -0.628438,-0.202722 -0.236508,-0.209479 -0.236508,-0.520319 0,-0.358141 0.270295,-0.5946503 0.270296,-0.236509 0.702769,-0.236509 0.391929,0 0.628437,0.195965 0.236509,0.189207 0.236509,0.5000473 0,0.385171 -0.270296,0.62168 -0.263538,0.236508 -0.702768,0.236508 z m 6.946596,2.493477 q -0.01351,0.0946 -0.01351,0.12839 0,0.283811 0.297325,0.283811 0.15542,0 0.263538,-0.05406 l -0.162177,1.114969 q -0.33787,0.0946 -0.675739,0.0946 -0.459503,0 -0.750071,-0.168935 -0.290567,-0.175689 -0.398686,-0.500043 -0.479774,0.668981 -1.223087,0.668981 -0.378414,0 -0.729798,-0.202722 -0.351385,-0.202721 -0.574378,-0.587892 -0.216237,-0.391929 -0.216237,-0.919006 0,-0.59465 0.263538,-1.081182 0.270296,-0.486532 0.723041,-0.763585 0.452745,-0.277053 0.979822,-0.277053 0.777099,0 1.081182,0.493289 l 0.31084,-1.743406 h 1.52717 z m -2.088033,0.364899 q 0.297325,0 0.479775,-0.229751 0.189207,-0.229751 0.189207,-0.614923 0,-0.263538 -0.148663,-0.418958 -0.141905,-0.162177 -0.398686,-0.162177 -0.297325,0 -0.486532,0.229751 -0.18245,0.229751 -0.18245,0.614923 0,0.263538 0.141906,0.425715 0.148662,0.15542 0.405443,0.15542 z m 5.277516,-2.628625 q 0.533834,0 0.952792,0.189207 0.425715,0.189207 0.668982,0.560864 0.243266,0.371656 0.243266,0.898732 0,0.08109 -0.01351,0.256781 l -2.61511,0.486532 q 0.07433,0.162178 0.243266,0.236509 0.168935,0.07433 0.445988,0.07433 0.43923,0 0.783857,-0.256781 l 0.635195,0.925763 q -0.675739,0.459502 -1.608259,0.459502 -0.608165,0 -1.074425,-0.209479 -0.459503,-0.209479 -0.716284,-0.59465 -0.250023,-0.385171 -0.250023,-0.905491 0,-0.608165 0.28381,-1.087939 0.290568,-0.486532 0.810887,-0.756828 0.527077,-0.277053 1.209573,-0.277053 z m -0.08109,1.040638 q -0.28381,0 -0.452745,0.168935 -0.168935,0.162177 -0.243266,0.43923 l 1.229846,-0.229751 Q 28.658869,12.591794 28.51021,12.49719 28.368304,12.395829 28.158825,12.395829 Z m 3.486814,2.790802 q -0.479774,0 -0.925762,-0.0946 -0.445988,-0.0946 -0.696011,-0.243266 l 0.527076,-1.040638 q 0.263538,0.162178 0.608165,0.250024 0.351385,0.08785 0.675739,0.08785 0.452746,0 0.452746,-0.175692 0,-0.07433 -0.121634,-0.108119 -0.114874,-0.04055 -0.371655,-0.07433 -0.398686,-0.06082 -0.675739,-0.141905 -0.277053,-0.08785 -0.486532,-0.297326 -0.209479,-0.216236 -0.209479,-0.59465 0,-0.682496 0.581135,-1.040638 0.581136,-0.358142 1.500141,-0.358142 0.405443,0 0.7771,0.07433 0.378414,0.06757 0.668981,0.202722 l -0.527076,1.040638 q -0.479775,-0.277053 -1.101455,-0.277053 -0.243266,0 -0.358141,0.05406 -0.108118,0.05406 -0.108118,0.12839 0,0.07433 0.114875,0.114876 0.114876,0.03379 0.391929,0.08109 0.391928,0.06082 0.662224,0.148663 0.277053,0.08109 0.479775,0.297325 0.209479,0.209479 0.209479,0.581135 0,0.445988 -0.277053,0.763585 -0.270296,0.31084 -0.743313,0.46626 -0.46626,0.15542 -1.047397,0.15542 z m 3.013802,-3.763866 h 1.520413 l -0.736555,3.696292 h -1.520413 z m 0.925763,-0.297325 q -0.391929,0 -0.628438,-0.202722 -0.236508,-0.209479 -0.236508,-0.520319 0,-0.358141 0.270295,-0.5946503 0.270296,-0.236509 0.702769,-0.236509 0.391929,0 0.628437,0.195965 0.236509,0.189207 0.236509,0.5000473 0,0.385171 -0.270296,0.621679 -0.263538,0.236509 -0.702768,0.236509 z m 5.405917,0.297325 -0.587893,2.95298 q -0.216236,1.101454 -0.858188,1.608259 -0.635195,0.513561 -1.669075,0.513561 -1.135242,0 -1.831253,-0.459502 l 0.648709,-1.040639 q 0.222994,0.168935 0.547349,0.263539 0.331112,0.101361 0.662224,0.101361 0.425716,0 0.635195,-0.175693 0.216236,-0.175692 0.28381,-0.527076 l 0.02027,-0.0946 q -0.378413,0.351384 -0.932519,0.351384 -0.418959,0 -0.783858,-0.189207 -0.364897,-0.195964 -0.587891,-0.560863 -0.222993,-0.364899 -0.222993,-0.844674 0,-0.540591 0.263538,-0.986579 0.263538,-0.452745 0.716283,-0.716283 0.459503,-0.263539 1.006851,-0.263539 0.871704,0 1.128484,0.628438 l 0.108119,-0.560864 z m -3.135429,1.824496 q 0,0.209479 0.141906,0.344626 0.148662,0.128391 0.398686,0.128391 0.297325,0 0.473017,-0.189207 0.182449,-0.189207 0.182449,-0.500047 0,-0.209479 -0.141905,-0.337869 -0.141905,-0.135148 -0.391928,-0.135148 -0.297325,0 -0.479775,0.189207 -0.18245,0.189207 -0.18245,0.500047 z m 6.27762,-1.89207 q 0.601407,0 0.959549,0.324355 0.364899,0.324355 0.364899,0.93252 0,0.229751 -0.0473,0.46626 l -0.405443,2.040731 h -1.52717 L 43.8495,13.260775 q 0.02703,-0.162177 0.02703,-0.222994 0,-0.398686 -0.385171,-0.398686 -0.540592,0 -0.682497,0.702769 l -0.358141,1.777193 H 40.92355 l 0.736556,-3.696292 h 1.439324 l -0.07433,0.371657 q 0.236508,-0.222994 0.520319,-0.331112 0.290568,-0.108119 0.587892,-0.108119 z m 5.737016,3.83144 q -0.601408,0 -1.06091,-0.209479 -0.452745,-0.216236 -0.702769,-0.601407 -0.250023,-0.385172 -0.250023,-0.898733 0,-0.601408 0.297325,-1.081183 0.297325,-0.486532 0.831159,-0.763585 0.533834,-0.277053 1.202815,-0.277053 0.655467,0 1.141999,0.290568 0.49329,0.290568 0.689254,0.790615 l -1.297419,0.59465 q -0.175692,-0.473017 -0.608165,-0.473017 -0.31084,0 -0.513562,0.229751 -0.195964,0.229751 -0.195964,0.59465 0,0.270296 0.148663,0.439231 0.15542,0.162177 0.432473,0.162177 0.229751,0 0.391928,-0.108118 0.168935,-0.114876 0.297325,-0.364899 l 1.11497,0.648709 q -0.277053,0.49329 -0.7771,0.763585 -0.49329,0.263538 -1.141999,0.263538 z m 4.1085,0 q -0.608165,0 -1.06091,-0.209479 -0.452746,-0.216236 -0.702769,-0.601407 -0.243266,-0.385172 -0.243266,-0.898733 0,-0.601408 0.297325,-1.081183 0.297325,-0.486532 0.817644,-0.763585 0.527077,-0.277053 1.189301,-0.277053 0.608165,0 1.06091,0.216237 0.452745,0.209479 0.696011,0.59465 0.250024,0.385171 0.250024,0.898733 0,0.601408 -0.297325,1.08794 -0.297326,0.479774 -0.824402,0.756827 -0.520319,0.277053 -1.182543,0.277053 z m 0.08785,-1.202815 q 0.297325,0 0.479775,-0.229751 0.189206,-0.229751 0.189206,-0.614923 0,-0.263538 -0.148662,-0.418958 -0.141905,-0.162177 -0.398686,-0.162177 -0.297325,0 -0.486532,0.229751 -0.18245,0.229751 -0.18245,0.614923 0,0.263538 0.141905,0.425715 0.148663,0.15542 0.405444,0.15542 z"
       id="text3"
       aria-label="feni design co" /></g><g
     inkscape:groupmode="layer"
     id="layer2"
     inkscape:label="components"
     style="display:none"><circle
       style="fill:#ff0000;fill-opacity:1;stroke:none;stroke-width:0.499999;stroke-dasharray:none;stroke-opacity:0.544828"
       id="path3"
       cx="30.516521"
       cy="79.492928"
       r="5.1588087"
       inkscape:label="OSC2_KNOB" /><circle
       style="display:inline;fill:#ff0000;fill-opacity:1;stroke:none;stroke-width:0.499999;stroke-dasharray:none;stroke-opacity:0.544828"
       id="path3-7"
       cx="30.5"
       cy="30.63028"
       r="5.1588087"
       inkscape:label="FREQ_PARAM" /><circle
       style="display:inline;fill:#ff0000;fill-opacity:1;stroke:none;stroke-width:0.499999;stroke-dasharray:none;stroke-opacity:0.544828"
       id="path3-9"
       cx="52.915146"
       cy="79.492928"
       r="5.1588087"
       inkscape:label="OSC3_KNOB" /><circle
       style="display:inline;fill:#ff0000;fill-opacity:1;stroke:none;stroke-width:0.499999;stroke-dasharray:none;stroke-opacity:0.544828"
       id="path3-0"
       cx="8.368988"
       cy="79.492928"
       r="5.1588087"
       inkscape:label="OSC1_KNOB" /><circle
       style="fill:#ff00ff;fill-opacity:1;stroke:none;stroke-width:0.499999;stroke-dasharray:none;stroke-opacity:0.544828"
       id="path3-8"
       cx="30.516521"
       cy="91.817719"
       r="5.1588087"
       inkscape:label="OSC2_LIGHT" /><circle
       style="display:inline;fill:#ff00ff;fill-opacity:1;stroke:none;stroke-width:0.499999;stroke-dasharray:none;stroke-opacity:0.544828"
       id="path3-8-4"
       cx="52.915146"
       cy="91.817719"
       r="5.1588087"
       inkscape:label="OSC3_LIGHT" /><circle
       style="display:inline;fill:#ff00ff;fill-opacity:1;stroke:none;stroke-width:0.499999;stroke-dasharray:none;stroke-opacity:0.544828"
       id="path3-8-1"
       cx="8.368988"
       cy="91.817719"
       r="5.1588087"
       inkscape:label="OSC1_LIGHT" /><circle
       style="fill:#0000ff;fill-opacity:1;stroke:none;stroke-width:0.499999;stroke-dasharray:none;stroke-opacity:0.544828"
       id="path3-8-5-2"
       cx="30.48"
       cy="112.43129"
       r="5.1588087"
       inkscape:label="OSC2_OUTPUT" /><circle
       style="display:inline;fill:#0000ff;fill-opacity:1;stroke:none;stroke-width:0.499999;stroke-dasharray:none;stroke-opacity:0.544828"
       id="path3-8-5-2-0"
       cx="42.699997"
       cy="112.43129"
       r="5.1588087"
       inkscape:label="OSC3_OUTPUT" /><circle
       style="display:inline;fill:#0000ff;fill-opacity:1;stroke:none;stroke-width:0.499999;stroke-dasharray:none;stroke-opacity:0.544828"
       id="path3-8-5-2-8"
       cx="18.299999"
       cy="112.43129"
       r="5.1588087"
       inkscape:label="OSC1_OUTPUT" /><circle
       style="display:inline;fill:#00ff00;fill-opacity:1;stroke:none;stroke-width:0.499999;stroke-dasharray:none;stroke-opacity:0.544828"
       id="path3-8-5-4"
       cx="30.512548"
       cy="54.943798"
       r="5.1588087"
       inkscape:label="FREQ_INPUT" /></g></svg>
